<svg width="97" height="96" viewBox="0 0 97 96" fill="none" xmlns="http://www.w3.org/2000/svg">
<path d="M0.5 48C0.5 21.4903 21.9903 0 48.5 0C75.0097 0 96.5 21.4903 96.5 48C96.5 74.5097 75.0097 96 48.5 96C21.9903 96 0.5 74.5097 0.5 48Z" fill="#5D5DF9"/>
<path d="M29.5 40.8C29.4995 37.9007 30.6648 35.1229 32.7336 33.0917C34.8025 31.0604 37.6012 29.9463 40.5 30C43.9346 29.9818 47.212 31.4384 49.5 34C51.788 31.4384 55.0654 29.9818 58.5 30C61.3988 29.9463 64.1975 31.0604 66.2664 33.0917C68.3352 35.1229 69.5005 37.9007 69.5 40.8C69.5 51.512 56.742 59.6 49.5 66C42.274 59.546 29.5 51.52 29.5 40.8Z" fill="#D2D2D2"/>
</svg>
