<svg width="141" height="40" viewBox="0 0 141 40" fill="none" xmlns="http://www.w3.org/2000/svg">
<g clip-path="url(#clip0_2_169)">
<path d="M0.5 20C0.5 8.95431 9.45431 0 20.5 0C31.5457 0 40.5 8.95431 40.5 20C40.5 31.0457 31.5457 40 20.5 40C9.45431 40 0.5 31.0457 0.5 20Z" fill="white"/>
<path d="M24.531 12.8125H24.532C25.1118 12.8127 25.6858 12.9281 26.2205 13.1523C26.7552 13.3767 27.2398 13.7055 27.6462 14.1191C28.4751 14.963 28.9392 16.0984 28.9392 17.2812C28.9392 18.4641 28.4751 19.5995 27.6462 20.4434L20.4998 27.6797L13.3542 20.4434C12.5255 19.5996 12.0613 18.464 12.0613 17.2812C12.0613 16.0985 12.5255 14.9629 13.3542 14.1191C13.7608 13.7058 14.2463 13.3774 14.781 13.1533C15.3157 12.9293 15.8898 12.8135 16.4695 12.8135C17.0492 12.8135 17.6233 12.9292 18.158 13.1533C18.6926 13.3774 19.1772 13.7058 19.5837 14.1191L19.5847 14.1201L20.2781 14.8203L20.5007 15.0439L20.7224 14.8203L21.4158 14.1201L21.4177 14.1191C21.8237 13.7051 22.3078 13.3757 22.8425 13.1514C23.3771 12.9271 23.9513 12.8121 24.531 12.8125ZM24.532 13.4375C24.0329 13.4368 23.5385 13.5368 23.0789 13.7314C22.62 13.9258 22.2046 14.2102 21.8582 14.5684L20.5007 15.9521L19.1365 14.5566L19.1355 14.5557C18.7877 14.2016 18.3725 13.9205 17.9148 13.7285C17.4571 13.5365 16.9658 13.4375 16.4695 13.4375C15.973 13.4375 15.4811 13.5364 15.0232 13.7285C14.5655 13.9206 14.1503 14.2015 13.8025 14.5557C13.0885 15.2806 12.6882 16.2579 12.6882 17.2754C12.6883 18.2927 13.0886 19.2693 13.8025 19.9941H13.8035L20.2781 26.5508L20.5007 26.7764L20.7224 26.5508L27.198 19.9941C27.912 19.2693 28.3122 18.2928 28.3123 17.2754C28.3123 16.2578 27.9121 15.2806 27.198 14.5557C26.8504 14.2014 26.4359 13.9195 25.9783 13.7275C25.5204 13.5355 25.0284 13.4372 24.532 13.4375Z" fill="#BDBDBD" stroke="#252B42" stroke-width="0.625"/>
<path d="M50.5 20C50.5 8.95431 59.4543 0 70.5 0C81.5457 0 90.5 8.95431 90.5 20C90.5 31.0457 81.5457 40 70.5 40C59.4543 40 50.5 31.0457 50.5 20Z" fill="white"/>
<g clip-path="url(#clip1_2_169)">
<path d="M60.5 11.6333C60.5 11.4654 60.5667 11.3043 60.6855 11.1855C60.8043 11.0667 60.9654 11 61.1334 11H63.0334C63.1747 11 63.3119 11.0473 63.4232 11.1343C63.5345 11.2213 63.6136 11.343 63.6478 11.4801L64.1608 13.5333H78.8672C78.9602 13.5334 79.0521 13.554 79.1362 13.5936C79.2204 13.6331 79.2948 13.6908 79.3541 13.7624C79.4135 13.8339 79.4564 13.9177 79.4797 14.0077C79.5031 14.0977 79.5063 14.1918 79.4892 14.2832L77.5891 24.4165C77.562 24.5617 77.4849 24.6927 77.3714 24.7871C77.2578 24.8815 77.1148 24.9332 76.9672 24.9333H65.5668C65.4192 24.9332 65.2762 24.8815 65.1626 24.7871C65.0491 24.6927 64.972 24.5617 64.9449 24.4165L63.0461 14.3022L62.5394 12.2667H61.1334C60.9654 12.2667 60.8043 12.1999 60.6855 12.0812C60.5667 11.9624 60.5 11.8013 60.5 11.6333ZM64.4293 14.8L66.0925 23.6667H76.4415L78.1047 14.8H64.4293ZM66.8335 24.9333C66.1616 24.9333 65.5172 25.2002 65.0421 25.6753C64.567 26.1504 64.3001 26.7948 64.3001 27.4667C64.3001 28.1385 64.567 28.7829 65.0421 29.258C65.5172 29.7331 66.1616 30 66.8335 30C67.5054 30 68.1498 29.7331 68.6249 29.258C69.1 28.7829 69.3669 28.1385 69.3669 27.4667C69.3669 26.7948 69.1 26.1504 68.6249 25.6753C68.1498 25.2002 67.5054 24.9333 66.8335 24.9333ZM75.7005 24.9333C75.0286 24.9333 74.3842 25.2002 73.9091 25.6753C73.434 26.1504 73.1671 26.7948 73.1671 27.4667C73.1671 28.1385 73.434 28.7829 73.9091 29.258C74.3842 29.7331 75.0286 30 75.7005 30C76.3724 30 77.0168 29.7331 77.4919 29.258C77.967 28.7829 78.2339 28.1385 78.2339 27.4667C78.2339 26.7948 77.967 26.1504 77.4919 25.6753C77.0168 25.2002 76.3724 24.9333 75.7005 24.9333ZM66.8335 26.2C67.1695 26.2 67.4917 26.3335 67.7292 26.571C67.9668 26.8085 68.1002 27.1307 68.1002 27.4667C68.1002 27.8026 67.9668 28.1248 67.7292 28.3623C67.4917 28.5999 67.1695 28.7333 66.8335 28.7333C66.4976 28.7333 66.1754 28.5999 65.9378 28.3623C65.7003 28.1248 65.5668 27.8026 65.5668 27.4667C65.5668 27.1307 65.7003 26.8085 65.9378 26.571C66.1754 26.3335 66.4976 26.2 66.8335 26.2ZM75.7005 26.2C76.0364 26.2 76.3586 26.3335 76.5962 26.571C76.8337 26.8085 76.9672 27.1307 76.9672 27.4667C76.9672 27.8026 76.8337 28.1248 76.5962 28.3623C76.3586 28.5999 76.0364 28.7333 75.7005 28.7333C75.3645 28.7333 75.0423 28.5999 74.8048 28.3623C74.5672 28.1248 74.4338 27.8026 74.4338 27.4667C74.4338 27.1307 74.5672 26.8085 74.8048 26.571C75.0423 26.3335 75.3645 26.2 75.7005 26.2Z" fill="#252B42"/>
</g>
<path d="M100.5 20C100.5 8.95431 109.454 0 120.5 0C131.546 0 140.5 8.95431 140.5 20C140.5 31.0457 131.546 40 120.5 40C109.454 40 100.5 31.0457 100.5 20Z" fill="white"/>
<path d="M123 20C123 20.663 122.737 21.2989 122.268 21.7678C121.799 22.2366 121.163 22.5 120.5 22.5C119.837 22.5 119.201 22.2366 118.732 21.7678C118.263 21.2989 118 20.663 118 20C118 19.337 118.263 18.7011 118.732 18.2322C119.201 17.7634 119.837 17.5 120.5 17.5C121.163 17.5 121.799 17.7634 122.268 18.2322C122.737 18.7011 123 19.337 123 20Z" fill="black"/>
<path d="M112.5 20C112.5 20 115.5 14.5 120.5 14.5C125.5 14.5 128.5 20 128.5 20C128.5 20 125.5 25.5 120.5 25.5C115.5 25.5 112.5 20 112.5 20ZM120.5 23.5C121.428 23.5 122.318 23.1313 122.975 22.4749C123.631 21.8185 124 20.9283 124 20C124 19.0717 123.631 18.1815 122.975 17.5251C122.318 16.8687 121.428 16.5 120.5 16.5C119.572 16.5 118.682 16.8687 118.025 17.5251C117.369 18.1815 117 19.0717 117 20C117 20.9283 117.369 21.8185 118.025 22.4749C118.682 23.1313 119.572 23.5 120.5 23.5Z" fill="black"/>
</g>
<defs>
<clipPath id="clip0_2_169">
<rect width="140" height="40" fill="white" transform="translate(0.5)"/>
</clipPath>
<clipPath id="clip1_2_169">
<rect width="20" height="20" fill="white" transform="translate(60.5 10)"/>
</clipPath>
</defs>
</svg>
