<svg width="71" height="76" viewBox="0 0 71 76" fill="none" xmlns="http://www.w3.org/2000/svg">
<path d="M0.5 10C0.5 4.47715 4.97715 0 10.5 0H60.5C66.0229 0 70.5 4.47715 70.5 10V66C70.5 71.5229 66.0229 76 60.5 76H10.5C4.97715 76 0.5 71.5229 0.5 66V10Z" fill="#DDEEFE"/>
<g clip-path="url(#clip0_2_135)">
<g clip-path="url(#clip1_2_135)">
<path d="M25.8483 54H45.1516C46.3002 54 47.2565 53.1215 47.2565 52.0419V28.6286C47.2565 27.5487 46.3002 26.6609 45.1516 26.6609H41.9695V28.4487C41.9741 28.759 41.7293 29.0158 41.4192 29.0261H29.5429C29.2266 29.0185 28.9711 28.765 28.9608 28.4487V26.6609H25.8483C24.6997 26.6609 23.7434 27.5487 23.7434 28.6286V52.0419C23.7434 53.1215 24.6997 54 25.8483 54ZM30.1434 36.0522C30.1434 35.7449 30.3926 35.4957 30.6999 35.4957H33.5521V32.6435C33.5521 32.3362 33.8013 32.087 34.1086 32.087H36.8912C37.1986 32.087 37.4478 32.3362 37.4478 32.6435V35.4957H40.2999C40.6073 35.4957 40.8565 35.7449 40.8565 36.0522V38.8348C40.8565 39.1421 40.6073 39.3913 40.2999 39.3913H37.4478V42.2435C37.4478 42.5508 37.1986 42.8 36.8912 42.8H34.1086C33.8013 42.8 33.5521 42.5508 33.5521 42.2435V39.3913H30.6999C30.3926 39.3913 30.1434 39.1421 30.1434 38.8348V36.0522ZM30.37 45.6522H40.6298C40.9374 45.6522 41.1863 45.9014 41.1863 46.2087C41.1863 46.5161 40.9374 46.7652 40.6298 46.7652H30.37C30.0624 46.7652 29.8135 46.5161 29.8135 46.2087C29.8135 45.9014 30.0624 45.6522 30.37 45.6522ZM28.2831 48.4348H42.7168C43.0244 48.4348 43.2733 48.684 43.2733 48.9913C43.2733 49.2987 43.0244 49.5478 42.7168 49.5478H28.2831C27.9755 49.5478 27.7266 49.2987 27.7266 48.9913C27.7266 48.684 27.9755 48.4348 28.2831 48.4348Z" fill="#5D5DF9"/>
<path d="M40.8566 24.1565H38.2522C37.9903 24.1563 37.7636 23.9734 37.7085 23.7171C37.4933 22.7226 36.5487 22 35.4623 22H35.4555C34.3982 21.9989 33.4745 22.7144 33.2115 23.7383C33.1482 23.9842 32.9264 24.1563 32.6723 24.1565H30.074V27.913H40.8566V24.1565Z" fill="#5D5DF9"/>
<path d="M34.6653 38.8347V41.6869H36.3349V38.8347C36.3349 38.5274 36.584 38.2782 36.8914 38.2782H39.7435V36.6086H36.8914C36.584 36.6086 36.3349 36.3595 36.3349 36.0521V33.2H34.6653V36.0521C34.6653 36.3595 34.4161 36.6086 34.1088 36.6086H31.2566V38.2782H34.1088C34.4161 38.2782 34.6653 38.5274 34.6653 38.8347Z" fill="#5D5DF9"/>
</g>
</g>
<defs>
<clipPath id="clip0_2_135">
<rect width="32" height="32" fill="white" transform="translate(19.5 22)"/>
</clipPath>
<clipPath id="clip1_2_135">
<rect width="32" height="32" fill="white" transform="translate(19.5 22)"/>
</clipPath>
</defs>
</svg>
