<svg width="70" height="76" viewBox="0 0 70 76" fill="none" xmlns="http://www.w3.org/2000/svg">
<path d="M0 10C0 4.47715 4.47715 0 10 0H60C65.5229 0 70 4.47715 70 10V66C70 71.5229 65.5229 76 60 76H10C4.47715 76 0 71.5229 0 66V10Z" fill="#F9FDFF"/>
<g clip-path="url(#clip0_2_127)">
<g clip-path="url(#clip1_2_127)">
<path d="M34.9909 26.2182C28.0159 20.1176 19.1472 25.4778 19.0018 32.7444C18.9647 34.5964 19.4993 36.4003 20.5634 38.0633H27.4607L28.6874 36.0186C29.0437 35.425 29.9057 35.4059 30.2821 35.9977L32.8705 40.0651L36.6435 32.1C36.9726 31.405 37.9532 31.3829 38.3161 32.0569L41.5503 38.0633H49.4184C55.2468 28.954 43.7279 18.5766 34.9909 26.2182Z" fill="#5D5DF9"/>
<path d="M40.1651 39.4452L37.5443 34.578L33.8382 42.4018C33.5229 43.0674 32.5956 43.1252 32.2002 42.5038L29.5148 38.2839L28.7952 39.4831C28.6258 39.7654 28.3207 39.9382 27.9914 39.9382H22.0464C22.2327 40.1332 21.2395 39.142 34.3297 52.1644C34.6953 52.5281 35.2863 52.5282 35.652 52.1644C48.5407 39.3423 47.7493 40.1328 47.9353 39.9382H40.9904C40.6455 39.9382 40.3286 39.7489 40.1651 39.4452Z" fill="#5D5DF9"/>
</g>
</g>
<defs>
<clipPath id="clip0_2_127">
<rect width="32" height="32" fill="white" transform="translate(19 22)"/>
</clipPath>
<clipPath id="clip1_2_127">
<rect width="32" height="28.8744" fill="white" transform="translate(19 23.5627)"/>
</clipPath>
</defs>
</svg>
