<svg width="70" height="76" viewBox="0 0 70 76" fill="none" xmlns="http://www.w3.org/2000/svg">
<path d="M0 10C0 4.47715 4.47715 0 10 0H60C65.5229 0 70 4.47715 70 10V66C70 71.5229 65.5229 76 60 76H10C4.47715 76 0 71.5229 0 66V10Z" fill="white"/>
<g clip-path="url(#clip0_2_143)">
<g clip-path="url(#clip1_2_143)">
<g clip-path="url(#clip2_2_143)">
<g clip-path="url(#clip3_2_143)">
<path d="M29.6705 38.3349C30.0644 38.2533 30.4761 38.0745 30.8644 37.7942C31.981 36.9865 32.4766 35.6603 31.9702 34.8305C31.4196 33.9279 29.9134 33.9886 28.756 35.0158C27.6492 35.9714 27.4131 36.9699 27.4131 38.0194C27.4131 38.7609 27.6503 40.0849 29.099 41.2347C29.7831 40.7062 30.5986 40.2714 31.5243 39.957L31.5365 39.9525C30.8253 39.6561 29.8981 39.0711 29.6705 38.3349ZM29.4918 35.7827C29.4918 35.4726 29.7389 35.2233 30.0436 35.2233C30.348 35.2233 30.5953 35.4738 30.5953 35.7838C30.5953 36.0939 30.348 36.3432 30.0436 36.3432C29.7389 36.3432 29.4918 36.0927 29.4918 35.7827Z" fill="#5D5DF9"/>
</g>
</g>
<g clip-path="url(#clip4_2_143)">
<g clip-path="url(#clip5_2_143)">
<path d="M42.607 38.0204C42.6036 36.9699 42.3686 35.9714 41.2609 35.0158C40.1043 33.9896 38.5971 33.9267 38.0465 34.8305C37.5411 35.6602 38.0354 36.9865 39.152 37.7942C39.5405 38.0745 39.9521 38.2532 40.346 38.3348C40.2092 38.7773 39.7932 39.2275 39.1588 39.6071C38.2864 40.1278 37.8152 40.1922 32.2336 42.0456C30.1681 42.7474 28.939 44.142 28.939 45.7763C28.939 46.9404 29.5336 47.8385 30.36 48.4962C30.8798 47.961 31.5287 47.4966 32.2867 47.1246C31.4139 46.6833 31.1446 46.3489 31.1446 45.7763C31.1446 44.8311 33.0339 44.2907 33.9055 44.0031V46.3953L36.1123 45.411V44.0042C36.9853 44.2933 38.8698 44.833 38.8698 45.7763C38.8698 47.3455 34.3762 48.2709 32.4644 49.5897C31.5365 50.2329 31.0375 51.0506 31.0375 52.0117C31.0375 52.5634 31.1017 53.2475 32.0704 53.9272C32.3451 54.1466 32.7267 53.8261 32.5483 53.5177C31.9082 52.2367 32.5879 51.5968 33.9076 51.0428V52.8943C33.9076 53.5034 34.402 53.9977 35.0111 53.9977C35.6201 53.9977 36.1145 53.5034 36.1145 52.8943V51.0439C37.3822 51.5757 38.1801 52.3272 37.4706 53.5177C37.2947 53.8201 37.6692 54.1493 37.9472 53.9272C38.8851 53.2165 38.9591 52.6074 38.9591 52.026C38.9591 51.1312 38.4692 50.2628 37.5401 49.5974C39.4182 48.9188 41.0798 47.7768 41.0798 45.7785C41.0798 44.3981 40.2028 43.1888 38.6866 42.423C39.3948 42.1681 39.7512 41.9971 40.2246 41.7147C42.298 40.4755 42.607 38.8679 42.607 38.0204ZM39.9743 36.3432C39.6696 36.3432 39.4226 36.0927 39.4226 35.7827C39.4226 35.4726 39.6696 35.2221 39.9743 35.2221C40.2787 35.2221 40.526 35.4726 40.526 35.7827C40.526 36.0927 40.2787 36.3432 39.9743 36.3432Z" fill="#5D5DF9"/>
</g>
</g>
<g clip-path="url(#clip6_2_143)">
<g clip-path="url(#clip7_2_143)">
<path d="M50.4476 24.209H42.8908C41.4084 24.209 40.296 24.8643 39.339 25.8213C38.2993 26.861 37.7587 29.1722 36.1032 29.1722V26.1076C36.7601 25.7253 37.2066 25.0217 37.2066 24.2068C37.2066 22.988 36.2186 22 34.9998 22C33.7809 22 32.793 22.988 32.793 24.2068C32.793 25.0216 33.2394 25.7253 33.8964 26.1076V39.2579C34.5774 39.0406 35.3248 38.8012 36.1032 38.5513V33.0242C36.5819 32.784 36.9682 32.3957 37.2051 31.9151C37.5889 32.571 38.3185 33.0363 39.1318 33.0363C39.9567 33.0363 40.6673 32.5783 41.0459 31.908C42.3386 33.2007 44.7413 33.2256 46.0339 31.933L44.1588 30.0579L45.019 30.4142C46.708 31.1138 48.6444 30.3117 49.3441 28.6227L46.6803 27.5193C49.2609 27.5192 50.4476 25.8999 50.4476 24.209Z" fill="#5D5DF9"/>
</g>
</g>
<g clip-path="url(#clip8_2_143)">
<g clip-path="url(#clip9_2_143)">
<path d="M30.6606 25.8213C29.7036 24.8643 28.5912 24.209 27.1087 24.209H19.552C19.552 25.8998 20.7387 27.5192 23.3193 27.5192L20.6554 28.6226C21.3551 30.3117 23.2915 31.1137 24.9806 30.4142L25.8408 30.0578L23.9657 31.9329C25.2583 33.2257 27.661 33.2008 28.9536 31.908C29.3322 32.5783 30.0429 33.0363 30.8678 33.0363C30.8759 33.0363 30.884 33.0362 30.8922 33.0361C31.9704 33.0239 32.7945 32.05 32.7945 30.9718V28.7519C31.9248 28.0383 31.4267 26.5874 30.6606 25.8213Z" fill="#5D5DF9"/>
</g>
</g>
</g>
</g>
<defs>
<clipPath id="clip0_2_143">
<rect width="32" height="32" fill="white" transform="translate(19 22)"/>
</clipPath>
<clipPath id="clip1_2_143">
<rect width="32" height="32" fill="white" transform="translate(19 22)"/>
</clipPath>
<clipPath id="clip2_2_143">
<rect width="4.75568" height="7.03818" fill="white" transform="translate(27.4131 34.1965)"/>
</clipPath>
<clipPath id="clip3_2_143">
<rect width="4.75568" height="7.03818" fill="white" transform="translate(27.4131 34.1965)"/>
</clipPath>
<clipPath id="clip4_2_143">
<rect width="13.668" height="19.8036" fill="white" transform="translate(28.939 34.1964)"/>
</clipPath>
<clipPath id="clip5_2_143">
<rect width="13.668" height="19.8036" fill="white" transform="translate(28.939 34.1964)"/>
</clipPath>
<clipPath id="clip6_2_143">
<rect width="17.6546" height="17.2579" fill="white" transform="translate(32.793 22)"/>
</clipPath>
<clipPath id="clip7_2_143">
<rect width="17.6546" height="17.2579" fill="white" transform="translate(32.793 22)"/>
</clipPath>
<clipPath id="clip8_2_143">
<rect width="13.2425" height="8.8273" fill="white" transform="translate(19.552 24.209)"/>
</clipPath>
<clipPath id="clip9_2_143">
<rect width="13.2425" height="8.8273" fill="white" transform="translate(19.552 24.209)"/>
</clipPath>
</defs>
</svg>
