<svg width="70" height="76" viewBox="0 0 70 76" fill="none" xmlns="http://www.w3.org/2000/svg">
<path d="M0 10C0 4.47715 4.47715 0 10 0H60C65.5229 0 70 4.47715 70 10V66C70 71.5229 65.5229 76 60 76H10C4.47715 76 0 71.5229 0 66V10Z" fill="#B6D7FF"/>
<g clip-path="url(#clip0_2_151)">
<g clip-path="url(#clip1_2_151)">
<g clip-path="url(#clip2_2_151)">
<path d="M46.5529 26.0371L35.2232 22.0381C35.0787 21.9873 34.9212 21.9873 34.7767 22.0381L23.4471 26.0371C23.1796 26.1315 23 26.3847 23 26.6691V34.6672C23 45.0196 24.5353 48.8032 34.698 53.9277C34.793 53.9759 34.8965 54 35 54C35.1035 54 35.2069 53.9759 35.302 53.9277C45.4647 48.8033 47 45.0197 47 34.6673V26.6691C47 26.3847 46.8204 26.1315 46.5529 26.0371ZM41.6667 40C41.6667 40.3685 41.3685 40.6667 41 40.6667H37.6667V44C37.6667 44.3685 37.3685 44.6667 37 44.6667H33C32.6315 44.6667 32.3333 44.3685 32.3333 44V40.6667H29C28.6315 40.6667 28.3333 40.3685 28.3333 40V36C28.3333 35.6315 28.6315 35.3333 29 35.3333H32.3333V32C32.3333 31.6315 32.6315 31.3333 33 31.3333H37C37.3685 31.3333 37.6667 31.6315 37.6667 32V35.3333H41C41.3685 35.3333 41.6667 35.6315 41.6667 36V40Z" fill="#5D5DF9"/>
</g>
</g>
</g>
<defs>
<clipPath id="clip0_2_151">
<rect width="32" height="32" fill="white" transform="translate(19 22)"/>
</clipPath>
<clipPath id="clip1_2_151">
<rect width="24" height="32" fill="white" transform="translate(23 22)"/>
</clipPath>
<clipPath id="clip2_2_151">
<rect width="24" height="32" fill="white" transform="translate(23 22)"/>
</clipPath>
</defs>
</svg>
