<svg width="61" height="32" viewBox="0 0 61 32" fill="none" xmlns="http://www.w3.org/2000/svg">
<g filter="url(#filter0_d_2_180)">
<path d="M4.5 5C4.5 3.34315 5.84315 2 7.5 2H53.5C55.1569 2 56.5 3.34315 56.5 5V23C56.5 24.6569 55.1569 26 53.5 26H7.5C5.84314 26 4.5 24.6569 4.5 23V5Z" fill="#E74040"/>
<path d="M19.2763 19.168C18.4923 19.168 17.741 19.0653 17.0223 18.86C16.3037 18.6453 15.725 18.37 15.2863 18.034L16.0563 16.326C16.4763 16.6247 16.971 16.872 17.5403 17.068C18.119 17.2547 18.7023 17.348 19.2903 17.348C19.7383 17.348 20.0977 17.306 20.3683 17.222C20.6483 17.1287 20.8537 17.0027 20.9843 16.844C21.115 16.6853 21.1803 16.5033 21.1803 16.298C21.1803 16.0367 21.0777 15.8313 20.8723 15.682C20.667 15.5233 20.3963 15.3973 20.0603 15.304C19.7243 15.2013 19.351 15.108 18.9403 15.024C18.539 14.9307 18.133 14.8187 17.7223 14.688C17.321 14.5573 16.9523 14.3893 16.6163 14.184C16.2803 13.9787 16.005 13.708 15.7903 13.372C15.585 13.036 15.4823 12.6067 15.4823 12.084C15.4823 11.524 15.6317 11.0153 15.9303 10.558C16.2383 10.0913 16.6957 9.72267 17.3023 9.452C17.9183 9.172 18.6883 9.032 19.6123 9.032C20.2283 9.032 20.835 9.10667 21.4323 9.256C22.0297 9.396 22.557 9.61067 23.0143 9.9L22.3143 11.622C21.857 11.3607 21.3997 11.1693 20.9423 11.048C20.485 10.9173 20.037 10.852 19.5983 10.852C19.1597 10.852 18.8003 10.9033 18.5203 11.006C18.2403 11.1087 18.0397 11.244 17.9183 11.412C17.797 11.5707 17.7363 11.7573 17.7363 11.972C17.7363 12.224 17.839 12.4293 18.0443 12.588C18.2497 12.7373 18.5203 12.8587 18.8563 12.952C19.1923 13.0453 19.561 13.1387 19.9623 13.232C20.373 13.3253 20.779 13.4327 21.1803 13.554C21.591 13.6753 21.9643 13.8387 22.3003 14.044C22.6363 14.2493 22.907 14.52 23.1123 14.856C23.327 15.192 23.4343 15.6167 23.4343 16.13C23.4343 16.6807 23.2803 17.1847 22.9723 17.642C22.6643 18.0993 22.2023 18.468 21.5863 18.748C20.9797 19.028 20.2097 19.168 19.2763 19.168ZM29.6501 19V17.53L29.5101 17.208V14.576C29.5101 14.1093 29.3654 13.7453 29.0761 13.484C28.7961 13.2227 28.3621 13.092 27.7741 13.092C27.3727 13.092 26.9761 13.1573 26.5841 13.288C26.2014 13.4093 25.8747 13.5773 25.6041 13.792L24.8201 12.266C25.2307 11.9767 25.7254 11.7527 26.3041 11.594C26.8827 11.4353 27.4707 11.356 28.0681 11.356C29.2161 11.356 30.1074 11.6267 30.7421 12.168C31.3767 12.7093 31.6941 13.554 31.6941 14.702V19H29.6501ZM27.3541 19.112C26.7661 19.112 26.2621 19.014 25.8421 18.818C25.4221 18.6127 25.1001 18.3373 24.8761 17.992C24.6521 17.6467 24.5401 17.2593 24.5401 16.83C24.5401 16.382 24.6474 15.99 24.8621 15.654C25.0861 15.318 25.4361 15.0567 25.9121 14.87C26.3881 14.674 27.0087 14.576 27.7741 14.576H29.7761V15.85H28.0121C27.4987 15.85 27.1441 15.934 26.9481 16.102C26.7614 16.27 26.6681 16.48 26.6681 16.732C26.6681 17.012 26.7754 17.236 26.9901 17.404C27.2141 17.5627 27.5174 17.642 27.9001 17.642C28.2641 17.642 28.5907 17.558 28.8801 17.39C29.1694 17.2127 29.3794 16.956 29.5101 16.62L29.8461 17.628C29.6874 18.1133 29.3981 18.482 28.9781 18.734C28.5581 18.986 28.0167 19.112 27.3541 19.112ZM33.8707 19V8.612H36.0547V19H33.8707ZM42.0196 19.112C41.161 19.112 40.405 18.944 39.7516 18.608C39.1076 18.272 38.6083 17.8147 38.2536 17.236C37.899 16.648 37.7216 15.9807 37.7216 15.234C37.7216 14.478 37.8943 13.8107 38.2396 13.232C38.5943 12.644 39.075 12.1867 39.6816 11.86C40.2883 11.524 40.9743 11.356 41.7396 11.356C42.477 11.356 43.1396 11.5147 43.7276 11.832C44.325 12.14 44.7963 12.588 45.1416 13.176C45.487 13.7547 45.6596 14.45 45.6596 15.262C45.6596 15.346 45.655 15.444 45.6456 15.556C45.6363 15.6587 45.627 15.7567 45.6176 15.85H39.4996V14.576H44.4696L43.6296 14.954C43.6296 14.562 43.5503 14.2213 43.3916 13.932C43.233 13.6427 43.0136 13.4187 42.7336 13.26C42.4536 13.092 42.127 13.008 41.7536 13.008C41.3803 13.008 41.049 13.092 40.7596 13.26C40.4796 13.4187 40.2603 13.6473 40.1016 13.946C39.943 14.2353 39.8636 14.5807 39.8636 14.982V15.318C39.8636 15.7287 39.9523 16.0927 40.1296 16.41C40.3163 16.718 40.573 16.956 40.8996 17.124C41.2356 17.2827 41.6276 17.362 42.0756 17.362C42.477 17.362 42.827 17.3013 43.1256 17.18C43.4336 17.0587 43.7136 16.8767 43.9656 16.634L45.1276 17.894C44.7823 18.286 44.3483 18.5893 43.8256 18.804C43.303 19.0093 42.701 19.112 42.0196 19.112Z" fill="#D2D2D2"/>
</g>
<defs>
<filter id="filter0_d_2_180" x="0.5" y="0" width="60" height="32" filterUnits="userSpaceOnUse" color-interpolation-filters="sRGB">
<feFlood flood-opacity="0" result="BackgroundImageFix"/>
<feColorMatrix in="SourceAlpha" type="matrix" values="0 0 0 0 0 0 0 0 0 0 0 0 0 0 0 0 0 0 127 0" result="hardAlpha"/>
<feOffset dy="2"/>
<feGaussianBlur stdDeviation="2"/>
<feColorMatrix type="matrix" values="0 0 0 0 0 0 0 0 0 0 0 0 0 0 0 0 0 0 0.1 0"/>
<feBlend mode="normal" in2="BackgroundImageFix" result="effect1_dropShadow_2_180"/>
<feBlend mode="normal" in="SourceGraphic" in2="effect1_dropShadow_2_180" result="shape"/>
</filter>
</defs>
</svg>
