<svg width="20" height="20" viewBox="0 0 20 20" fill="none" xmlns="http://www.w3.org/2000/svg">
<path d="M19.0966 7.41939C19.039 7.24958 18.9329 7.10037 18.7914 6.99018C18.6499 6.87999 18.4792 6.81365 18.3005 6.79934L13.0713 6.38383L10.8085 1.37482C10.7364 1.21349 10.6192 1.07646 10.471 0.980278C10.3228 0.884093 10.1499 0.832861 9.9732 0.832764C9.79651 0.832667 9.62356 0.883709 9.47523 0.979732C9.32691 1.07575 9.20954 1.21265 9.1373 1.3739L6.87449 6.38383L1.64533 6.79934C1.46964 6.81326 1.30168 6.8775 1.16154 6.98438C1.02141 7.09125 0.915026 7.23624 0.85513 7.40199C0.795235 7.56774 0.784361 7.74724 0.823808 7.91901C0.863256 8.09078 0.951355 8.24755 1.07757 8.37056L4.94187 12.1376L3.57519 18.0556C3.5337 18.2348 3.547 18.4222 3.61337 18.5937C3.67974 18.7652 3.79612 18.9128 3.94741 19.0173C4.0987 19.1218 4.2779 19.1785 4.46178 19.1799C4.64565 19.1813 4.8257 19.1274 4.97856 19.0252L9.9729 15.6956L14.9672 19.0252C15.1235 19.1289 15.3077 19.1823 15.4952 19.1782C15.6827 19.1741 15.8645 19.1126 16.016 19.0022C16.1675 18.8917 16.2816 18.7374 16.3429 18.5602C16.4041 18.3829 16.4097 18.1912 16.3587 18.0107L14.6811 12.1404L18.8416 8.39625C19.1141 8.15043 19.214 7.76702 19.0966 7.41939Z" fill="#F3CD03"/>
</svg>
